<?xml version="1.0" encoding="utf-8"?>
<!-- Generator: Adobe Illustrator 25.0.0, SVG Export Plug-In . SVG Version: 6.00 Build 0)  -->
<svg version="1.1" xmlns="http://www.w3.org/2000/svg" xmlns:xlink="http://www.w3.org/1999/xlink" x="0px" y="0px"
	 viewBox="0 0 884 341" style="enable-background:new 0 0 884 341;" xml:space="preserve">
<style type="text/css">
	.st0{fill:#1E40AF;}
	.st1{fill:#BFDBFE;stroke:#1E40AF;stroke-miterlimit:10;}
	.st2{fill:#93C5FD;stroke:#1E40AF;stroke-miterlimit:10;}
	.st3{fill:#FFFFFF;stroke:#000000;stroke-width:5;stroke-miterlimit:10;}
	.st4{fill:#5CA5FA;stroke:#1E40AF;stroke-miterlimit:10;}
	.st5{display:none;}
	.st6{display:inline;fill:#FFFFFF;stroke:#000000;stroke-width:5;stroke-miterlimit:10;}
	.st7{display:inline;}
	.st8{display:inline;fill:#FFFFFF;stroke:#000000;stroke-miterlimit:10;}
</style>
<g id="Camada_1">
	<path class="st0" d="M235.71,0.5h0.09c6.74,0,12.21,5.47,12.21,12.21v290.58c0,6.74,5.47,12.21,12.21,12.21h74.31
		c6.74,0,12.21,5.47,12.21,12.21v0c0,6.74-5.47,12.21-12.21,12.21h-98.82c-6.74,0-12.21-5.47-12.21-12.21v-315
		C223.5,5.97,228.97,0.5,235.71,0.5z"/>
	<path class="st0" d="M316.5,9.5v113.14c0,4.97-4.03,9-9,9h-0.1c-4.97,0-9-4.03-9-9V82.5c0-4.97-4.03-9-9-9h-19.84
		c-4.95,0-8.97-3.99-9-8.94v0c-0.03-4.99,4.01-9.06,9-9.06h19.84c4.97,0,9-4.03,9-9v-37c0-4.97,4.03-9,9-9h0.1
		C312.47,0.5,316.5,4.53,316.5,9.5z"/>
	<g>
		<path class="st0" d="M355.68,132.75L355.68,132.75c-4.75,0-8.6-3.85-8.6-8.6V10.36c0-4.75,3.85-8.6,8.6-8.6l0,0
			c4.75,0,8.6,3.85,8.6,8.6v113.79C364.28,128.9,360.43,132.75,355.68,132.75z"/>
		<path class="st0" d="M414.72,132.3c-5.29-1.2-10.22-3-14.8-5.41c-1.91-1-3.76-2.1-5.57-3.31c-4.18-2.8-5.1-8.57-2.05-12.57
			l0.09-0.12c2.79-3.66,7.94-4.55,11.78-2c2.86,1.9,5.87,3.46,9.04,4.68c5.62,2.16,11.72,3.24,18.3,3.24
			c8.88,0,15.77-1.76,20.67-5.27c4.89-3.51,7.34-8.48,7.34-14.91v-0.09c0-4.56-1.11-8.18-3.33-10.86c-2.22-2.67-5.09-4.65-8.6-5.95
			c-3.52-1.29-8.06-2.48-13.62-3.56c-0.17-0.06-0.35-0.09-0.55-0.09c-0.2,0-0.38-0.03-0.55-0.09l-1.27-0.27
			c-8.21-1.5-14.89-3.2-20.03-5.09c-5.15-1.89-9.55-5.34-13.2-10.36c-3.66-5.01-5.48-12.15-5.48-21.4v-0.09
			c0-8.11,1.7-15.03,5.1-20.77c3.4-5.74,8.36-10.1,14.89-13.11c6.52-3,14.37-4.5,23.53-4.5c4.39,0,8.7,0.51,12.95,1.53
			c4.25,1.02,8.44,2.54,12.57,4.55c1.5,0.73,3,1.53,4.48,2.4c4.36,2.56,5.67,8.26,2.85,12.45l0,0c-2.59,3.86-7.74,5.03-11.73,2.66
			c-2.39-1.42-4.78-2.61-7.16-3.55c-4.64-1.83-9.29-2.75-13.96-2.75c-8.38,0-14.89,1.79-19.53,5.36c-4.64,3.57-6.96,8.63-6.96,15.18
			v0.09c0,4.5,1.19,8.05,3.58,10.63c2.39,2.58,5.37,4.49,8.94,5.72c3.57,1.23,8.53,2.51,14.89,3.83c0.22,0.06,0.43,0.11,0.63,0.14
			c0.2,0.03,0.41,0.08,0.63,0.13c0.28,0.06,0.59,0.12,0.93,0.18c0.34,0.06,0.65,0.12,0.93,0.18c7.42,1.62,13.62,3.54,18.6,5.77
			c4.98,2.22,9.14,5.81,12.48,10.77c3.34,4.96,5.02,11.73,5.02,20.32v0.18c0,7.99-1.77,14.82-5.31,20.5
			c-3.54,5.68-8.67,10-15.39,12.97c-6.72,2.97-14.83,4.46-24.33,4.46C425.6,134.1,420.01,133.5,414.72,132.3z"/>
		<path class="st0" d="M491.73,1.76h71.36c4.19,0,7.59,3.4,7.59,7.59v2.29c0,4.19-3.4,7.59-7.59,7.59h-71.36
			c-4.19,0-7.59-3.4-7.59-7.59V9.35C484.14,5.16,487.54,1.76,491.73,1.76z M526.4,12.48h2.02c4.19,0,7.59,3.4,7.59,7.59v105.09
			c0,4.19-3.4,7.59-7.59,7.59h-2.02c-4.19,0-7.59-3.4-7.59-7.59V20.07C518.81,15.88,522.21,12.48,526.4,12.48z"/>
		<path class="st0" d="M602.15,128.11c-6.52-3.99-11.57-9.64-15.14-16.94c-3.57-7.3-5.36-15.75-5.36-25.36V48.7
			c0-9.61,1.78-18.06,5.36-25.36c3.57-7.3,8.62-12.94,15.14-16.94c6.52-3.99,14.06-5.99,22.61-5.99c8.55,0,16.08,2,22.61,5.99
			c6.52,4,11.57,9.64,15.14,16.94c3.57,7.3,5.36,15.75,5.36,25.36v37.12c0,9.61-1.79,18.06-5.36,25.36
			c-3.57,7.3-8.62,12.94-15.14,16.94c-6.52,4-14.06,5.99-22.61,5.99C616.21,134.1,608.67,132.11,602.15,128.11z M638.12,112.35
			c3.85-2.43,6.83-5.89,8.94-10.36c2.11-4.47,3.16-9.65,3.16-15.54V48.07c0-5.89-1.05-11.07-3.16-15.54
			c-2.11-4.47-5.09-7.93-8.94-10.36c-3.85-2.43-8.31-3.65-13.37-3.65s-9.52,1.22-13.37,3.65c-3.85,2.43-6.83,5.89-8.94,10.36
			c-2.11,4.48-3.16,9.66-3.16,15.54v38.38c0,5.89,1.05,11.07,3.16,15.54c2.11,4.48,5.09,7.93,8.94,10.36
			c3.85,2.43,8.31,3.65,13.37,3.65S634.27,114.78,638.12,112.35z"/>
		<path class="st0" d="M701.12,1.67h2.98c3.93,0,7.11,3.19,7.11,7.11v116.86c0,3.93-3.19,7.11-7.11,7.11h-2.98
			c-3.93,0-7.11-3.19-7.11-7.11V8.78C694.01,4.85,697.19,1.67,701.12,1.67z M701.51,66.98c0-3.93,3.19-7.11,7.11-7.11h34.72
			c3.26,0,6.16-0.84,8.69-2.52c2.53-1.68,4.48-4.07,5.86-7.16c1.38-3.09,2.07-6.65,2.07-10.68c0-4.02-0.69-7.58-2.07-10.68
			c-1.38-3.09-3.32-5.48-5.82-7.16c-2.5-1.68-5.41-2.52-8.73-2.52h-34.72c-3.93,0-7.11-3.19-7.11-7.11V8.78
			c0-3.93,3.19-7.11,7.11-7.11h34.05c7.09,0,13.31,1.56,18.68,4.69c5.37,3.12,9.53,7.55,12.48,13.29
			c2.95,5.74,4.43,12.36,4.43,19.87c0,7.51-1.49,14.13-4.47,19.87c-2.98,5.74-7.16,10.17-12.53,13.29
			c-5.37,3.12-11.57,4.68-18.6,4.68h-34.05c-3.93,0-7.11-3.19-7.11-7.11V66.98z M743.41,71.24l3.1-0.75
			c3.24-0.78,6.58,0.78,8.05,3.77l23.8,48.24c2.33,4.73-1.11,10.26-6.38,10.26h-4.46c-2.75,0-5.26-1.59-6.43-4.08l-22.43-47.49
			C736.72,77.11,739.03,72.3,743.41,71.24z"/>
		<path class="st0" d="M842.63,81.46v42.72c0,4.73-3.84,8.57-8.57,8.57h-0.07c-4.73,0-8.57-3.84-8.57-8.57V81.46
			c0-1.29-0.29-2.55-0.85-3.71l-30.62-63.71c-2.73-5.69,1.41-12.28,7.72-12.28h0c3.36,0,6.41,1.97,7.8,5.03l16.74,36.88
			c3.04,6.7,12.56,6.7,15.61,0l16.74-36.88c1.39-3.06,4.44-5.03,7.8-5.03h0c6.31,0,10.46,6.59,7.72,12.28l-30.62,63.71
			C842.92,78.91,842.63,80.18,842.63,81.46z"/>
	</g>
	<path class="st0" d="M380.33,339.65L380.33,339.65c-5.61,0-10.15-4.4-10.15-9.82v-124c0-5.43,4.55-9.82,10.15-9.82l0,0
		c5.61,0,10.15,4.4,10.15,9.82v124C390.48,335.25,385.94,339.65,380.33,339.65z"/>
	<path class="st0" d="M431.52,191.19h10.22c1.85,0,3.56,0.98,4.5,2.58l57.18,98.18c2.67,4.59,9.7,2.69,9.7-2.62v-92.95
		c0-2.87,2.33-5.2,5.2-5.2h9.7c2.87,0,5.2,2.33,5.2,5.2v137.95c0,2.87-2.33,5.2-5.2,5.2h-10.44c-1.84,0-3.55-0.97-4.48-2.56
		l-56.99-96.69c-2.69-4.56-9.69-2.66-9.69,2.64v91.41c0,2.87-2.33,5.2-5.2,5.2h-9.7c-2.87,0-5.2-2.33-5.2-5.2V196.39
		C426.32,193.51,428.65,191.19,431.52,191.19z"/>
	<path class="st0" d="M574.54,191.19h9.38c3.02,0,5.46,2.45,5.46,5.46v137.54c0,3.02-2.45,5.46-5.46,5.46h-9.38
		c-3.02,0-5.46-2.45-5.46-5.46V196.65C569.07,193.63,571.52,191.19,574.54,191.19z M584.39,191.19h72.2c3.02,0,5.46,2.45,5.46,5.46
		v8.88c0,3.02-2.45,5.46-5.46,5.46h-72.2c-3.02,0-5.46-2.45-5.46-5.46v-8.88C578.93,193.63,581.37,191.19,584.39,191.19z
		 M584.39,256.02h61.25c3.02,0,5.46,2.45,5.46,5.46v8.88c0,3.02-2.45,5.46-5.46,5.46h-61.25c-3.02,0-5.46-2.45-5.46-5.46v-8.88
		C578.93,258.47,581.37,256.02,584.39,256.02z M584.39,319.84h72.2c3.02,0,5.46,2.45,5.46,5.46v8.88c0,3.02-2.45,5.46-5.46,5.46
		h-72.2c-3.02,0-5.46-2.45-5.46-5.46v-8.88C578.93,322.29,581.37,319.84,584.39,319.84z"/>
	<circle class="st0" cx="380" cy="170" r="18"/>
	<path class="st0" d="M356.76,164L261,163v13l96.04,1c-0.67-2.21-1.04-4.56-1.04-7C356,167.93,356.26,165.92,356.76,164z"/>
	<path class="st0" d="M877.5,164H403.24c0.49,1.92,0.76,3.93,0.76,6c0,2.44-0.37,4.79-1.04,7H877.5c3.59,0,6.5-2.91,6.5-6.5
		S881.09,164,877.5,164z"/>
	<path class="st0" d="M6.5,176H211v-13H6.5c-3.59,0-6.5,2.91-6.5,6.5l0,0C0,173.09,2.91,176,6.5,176z"/>
</g>
<g id="Camada_3">
	<path class="st1" d="M75.64,166.33v8.35c0,5.13-1.48,10.17-4.28,14.64L4.33,296.02c-12.49,19.89,3.53,44.48,28.99,44.48h101.35
		c25.46,0,41.49-24.59,28.99-44.48l-67.02-106.7c-2.81-4.47-4.28-9.51-4.28-14.64v-8.35c0-5.13,1.48-10.17,4.28-14.64l67.02-106.7
		c12.49-19.89-3.53-44.48-28.99-44.48H33.32C7.87,0.5-8.16,25.09,4.33,44.98l67.02,106.7C74.16,156.15,75.64,161.2,75.64,166.33z"/>
	<path class="st2" d="M163.39,296.02c-8.96-14.17-17.93-28.34-26.89-42.52c-12.19,0.01-26.47,1.24-42,5
		c-48.05,11.64-79.45,40.63-94.37,56.74c2.43,13.69,15.45,25.26,32.91,25.26H134.4C159.85,340.5,175.88,315.91,163.39,296.02z"/>
	<path class="st3" d="M-12.5,1.5"/>
	<path class="st4" d="M80.5,284.5c-2.74-6.01-5.88-17.6-17-26c-10.03-7.58-21.81-8.97-30-9c-9.69,15.51-19.39,31.01-29.08,46.52
		c-12.49,19.89,3.53,44.48,28.99,44.48h101.35c14.65,0,26.16-8.14,30.92-18.84C106.44,315.18,86.99,298.76,80.5,284.5z"/>
	<path class="st3" d="M82.5,237.5"/>
</g>
<g id="Camada_4" class="st5">
	<path class="st6" d="M12.08,45.05l51.68,93.68c2.45,4.44,3.74,9.44,3.74,14.51v33.53c0,5.08-1.29,10.07-3.74,14.51l-51.68,93.68
		c-11.05,20.02,3.44,44.55,26.3,44.55h91.24c22.86,0,37.35-24.53,26.3-44.55l-51.68-93.68c-2.45-4.44-3.74-9.44-3.74-14.51v-33.53
		c0-5.08,1.29-10.07,3.74-14.51l51.68-93.68c11.05-20.02-3.44-44.55-26.3-44.55H38.38C15.52,0.5,1.03,25.03,12.08,45.05z"/>
</g>
<g id="Camada_5" class="st5">
	<path class="st6" d="M3.51,0.66H164c7.25,0,11.8,7.83,8.22,14.13L-4.7,325.53c-3.59,6.3,0.96,14.13,8.22,14.13H164
		c7.25,0,11.8-7.83,8.22-14.13L-4.7,14.79C-8.29,8.48-3.74,0.66,3.51,0.66z"/>
	<circle class="st7" cx="11.25" cy="326.66" r="6.5"/>
	<circle class="st7" cx="116.25" cy="326.66" r="6.5"/>
	<circle class="st7" cx="75.25" cy="326.66" r="6.5"/>
	<circle class="st7" cx="54.25" cy="326.66" r="6.5"/>
	<circle class="st7" cx="32.25" cy="326.66" r="6.5"/>
	<circle class="st7" cx="96.25" cy="326.66" r="6.5"/>
	<circle class="st7" cx="136.25" cy="326.66" r="6.5"/>
	<circle class="st7" cx="157.25" cy="326.66" r="6.5"/>
	<circle class="st7" cx="84.25" cy="143.66" r="6.5"/>
	<circle class="st7" cx="75.25" cy="129.66" r="6.5"/>
	<circle class="st7" cx="94.25" cy="129.66" r="6.5"/>
	<circle class="st7" cx="85.25" cy="311.66" r="6.5"/>
	<circle class="st7" cx="65.25" cy="311.66" r="6.5"/>
	<circle class="st7" cx="106.25" cy="311.66" r="6.5"/>
	<circle class="st7" cx="147.25" cy="311.66" r="6.5"/>
	<circle class="st7" cx="127.25" cy="311.66" r="6.5"/>
	<circle class="st7" cx="22.25" cy="311.66" r="6.5"/>
	<circle class="st7" cx="43.25" cy="311.66" r="6.5"/>
</g>
<g id="Camada_2" class="st5">
	<rect x="280.93" y="2.59" class="st8" width="32.91" height="149.37"/>
	<polygon class="st8" points="344.22,151.96 344.22,2.59 372.07,2.59 425.04,125.54 425.04,2.59 446.04,2.59 446.04,147.04 
		408.78,147.04 369.04,49.54 369.54,151.96 	"/>
	<polygon class="st8" points="474.6,2.59 474.6,147.04 556.88,147.04 556.88,121.54 501.04,122.02 501.45,77.28 532.04,77.28 
		531.78,61.54 501.04,61.54 501.04,22.54 556.88,22.52 556.88,2.59 	"/>
	<polygon class="st8" points="613.43,146.32 586.45,146.32 587.04,40.54 558.04,40.54 558.04,15.54 613.43,15.49 643.04,15.49 
		643.04,40.54 614.04,40.54 	"/>
</g>
</svg>
